Drive 2011 SCREENER-P2P


A Hollywood stunt performer who moonlights as a wheelman discovers that a 
contract has been put on him after a heist gone wrong.


General

Format : MPEG-4
Format profile : Base Media / Version 2
Codec ID : mp42
File size : 707 MiB
Duration : 1h 38mn
Overall bit rate mode : Variable
Overall bit rate : 1 005 Kbps
Encoded date : UTC 2011-09-24 03:01:56
Tagged date : UTC 2011-09-24 06:07:30
Writing application : HandBrake 0.9.5 2011010300

Video

ID : 1
Format : AVC
Format/Info : Advanced Video Codec
Format profile : High@L3.0
Format settings, CABAC : Yes
Format settings, ReFrames : 5 frames
Codec ID : avc1
Codec ID/Info : Advanced Video Coding
Duration : 1h 38mn
Bit rate mode : Variable
Bit rate : 684 Kbps
Width : 720 pixels
Height : 368 pixels
Display aspect ratio : 2.35:1
Frame rate mode : Variable
Frame rate : 23.976 fps
Minimum frame rate : 2.724 fps
Maximum frame rate : 80.285 fps
Color space : YUV
Chroma subsampling : 4:2:0
Bit depth : 8 bits
Scan type : Progressive
Bits/(Pixel*Frame) : 0.108
Stream size : 481 MiB (68%)
Writing library : x264 core 112


Audio #1

ID : 2
Format : AAC
Format/Info : Advanced Audio Codec
Format profile : LC
Codec ID : 40
Duration : 1h 38mn
Bit rate mode : Variable
Bit rate : 123 Kbps
Maximum bit rate : 158 Kbps
Channel(s) : 2 channels
Channel positions : Front: L R
Sampling rate : 48.0 KHz
Compression mode : Lossy
Stream size : 86.7 MiB (12%)
Encoded date : UTC 2011-09-24 03:01:56
Tagged date : UTC 2011-09-24 06:07:29

Audio #2

ID : 3
Format : AC-3
Format/Info : Audio Coding 3
Mode extension : CM (complete main)
Codec ID : ac-3
Duration : 1h 38mn
Bit rate mode : Constant
Bit rate : 192 Kbps
Channel(s) : 2 channels
Channel positions : Front: L R
Sampling rate : 48.0 KHz
Bit depth : 16 bits
Compression mode : Lossy
Stream size : 135 MiB (19%)
Encoded date : UTC 2011-09-24 03:01:56
Tagged date : UTC 2011-09-24 06:07:29

Text

ID : 4
Format : Apple text
Codec ID : text
Duration: 1h 38mn
Bit rate mode : Constant
Bit rate : 0
Stream size : 192 Bytes (0%)
Encoded date : UTC 2011-09-24 03:01:56
Tagged date : UTC 2011-09-24 06:07:30


Screens:

 
http://www.pix2links.com/images/22572563049927489666.jpg
    	 
http://www.pix2links.com/images/19867022457546333986.jpg
    	 
http://www.pix2links.com/images/78158580884413728019.jpg


ENJOY!    